# xmcd
# Track frame offsets:
# 150
# 14898
# 37688
# 59082
# 72362
# 84008
# 104892
# 111031
# 123176
# 140860
# 163365
# 178828
#
# Disc length: 2662 seconds
# Revision: 1
# Processed by: cddbd v1.4PL0 Copyright (c) Steve Scherf et al.
# Submitted via: VisiTrax 2.9.5.181 - For more info visit www.synapsa.com
#
DISCID=b20a640c
DTITLE=Lucero - That Much Further West (Bonus CD)
DYEAR=2003
DGENRE=Country
TTITLE0=That Much Further West (original instrumental demo)
TTITLE1=Mine Tonight (little rock demo)
TTITLE2=Sad And Lonely (remixed little rock demo)
TTITLE3=Across The River (heavy metal version with Steve Selvidge)
TTITLE4=The Only One (Memphis demo)
TTITLE5=Hate And Jealousy (acoustic version)
TTITLE6=Joining The Army (live, Blue Cats - Knoxville 04/03/03)
TTITLE7=Tonight Ain't Gonna Be Good (live - Memphis in May 05/03/03)
TTITLE8=Tears Don't Matter Much (little rock demo)
TTITLE9=Coming Home (acoustic version)
TTITLE10=When You Decided To Leave (full band version)
TTITLE11=That Much Further West (reverb remix)
EXTD=
EXTT0=
EXTT1=
EXTT2=
EXTT3=
EXTT4=
EXTT5=
EXTT6=
EXTT7=
EXTT8=
EXTT9=
EXTT10=
EXTT11=
PLAYORDER=
